# Blender 4.3.2
# www.blender.org
mtllib grass2.mtl
o GrassBunch2
v -0.678005 -0.003637 -0.626025
v -0.544879 0.001506 -0.618684
v -0.602162 0.001506 -0.735681
v -0.631626 0.224521 -0.648733
v -0.503134 0.205569 -0.638596
v -0.560833 0.205569 -0.756442
v -0.363514 0.630237 -0.780004
v -0.535568 0.452587 -0.695764
v -0.470713 0.460813 -0.781946
v -0.427721 0.460813 -0.694139
v -0.627935 -0.002243 -0.739435
v -0.703163 0.000826 -0.607162
v -0.552708 0.000826 -0.607162
v -0.627935 0.294473 -0.701013
v -0.703124 0.239563 -0.580361
v -0.552747 0.239563 -0.580361
v -0.627935 0.588659 -0.440170
v -0.627935 0.516478 -0.591888
v -0.571318 0.479323 -0.498558
v -0.684553 0.479323 -0.498558
v -0.572202 0.001379 -0.643200
v -0.623131 0.000000 -0.764953
v -0.702791 0.000000 -0.624115
v -0.603423 0.158302 -0.660858
v -0.638796 0.130139 -0.773813
v -0.718455 0.130139 -0.632975
v -0.830076 0.441359 -0.789056
v -0.718023 0.359973 -0.725677
v -0.789959 0.328177 -0.692768
v -0.726883 0.328177 -0.804286
vn -0.8198 0.1107 -0.5618
vn 0.8759 -0.2210 -0.4289
vn -0.0590 0.1107 0.9921
vn -0.7277 0.4662 -0.5031
vn 0.7825 -0.4907 -0.3831
vn -0.0489 0.4662 0.8833
vn -0.0445 0.2197 0.9746
vn 0.8448 -0.3396 -0.4136
vn -0.7892 0.2214 -0.5728
vn 0.8673 0.0557 -0.4946
vn -0.0000 -0.1116 0.9938
vn -0.8673 0.0557 -0.4946
vn 0.7928 0.5504 -0.2618
vn -0.0000 -0.4711 0.8821
vn -0.7928 0.5504 -0.2618
vn -0.8705 0.2171 -0.4417
vn -0.0000 -0.3229 0.9464
vn 0.8697 0.2184 -0.4426
vn 0.1418 0.1385 0.9802
vn -0.8622 -0.1370 -0.4877
vn 0.9131 0.1385 -0.3835
vn 0.0529 0.6579 0.7513
vn -0.7039 -0.5882 -0.3981
vn 0.6711 0.6579 -0.3417
vn 0.8560 0.3706 -0.3605
vn -0.7899 -0.4201 -0.4468
vn 0.2509 0.3617 0.8979
vn -0.8217 0.1095 -0.5593
vn -0.0621 0.1095 0.9920
vn -0.0316 0.2214 0.9747
vn -0.7971 0.2197 -0.5625
vn 0.8600 0.0655 -0.5061
vn -0.8600 0.0655 -0.5061
vn -0.8697 0.2184 -0.4426
vn 0.8705 0.2171 -0.4417
vn 0.2133 0.0919 0.9727
vn 0.9435 0.0919 -0.3184
vn 0.8988 0.3617 -0.2476
vn 0.1321 0.3706 0.9194
s 0
usemtl grass
f 4//1 3//1 1//1
f 6//2 2//2 3//2
f 2//3 4//3 1//3
f 9//4 8//4 7//4
f 10//5 9//5 7//5
f 8//6 10//6 7//6
f 5//7 8//7 4//7
f 6//8 10//8 5//8
f 6//9 8//9 9//9
f 11//10 16//10 13//10
f 16//11 12//11 13//11
f 15//12 11//12 12//12
f 19//13 18//13 17//13
f 20//14 19//14 17//14
f 18//15 20//15 17//15
f 14//16 20//16 18//16
f 16//17 20//17 15//17
f 14//18 19//18 16//18
f 24//19 23//19 21//19
f 26//20 22//20 23//20
f 22//21 24//21 21//21
f 29//22 28//22 27//22
f 30//23 29//23 27//23
f 28//24 30//24 27//24
f 25//25 28//25 24//25
f 26//26 30//26 25//26
f 26//27 28//27 29//27
f 4//28 6//28 3//28
f 6//2 5//2 2//2
f 2//29 5//29 4//29
f 5//30 10//30 8//30
f 6//8 9//8 10//8
f 6//31 4//31 8//31
f 11//32 14//32 16//32
f 16//11 15//11 12//11
f 15//33 14//33 11//33
f 14//34 15//34 20//34
f 16//17 19//17 20//17
f 14//35 18//35 19//35
f 24//36 26//36 23//36
f 26//20 25//20 22//20
f 22//37 25//37 24//37
f 25//38 30//38 28//38
f 26//26 29//26 30//26
f 26//39 24//39 28//39
